<?xml version="1.0" encoding="utf-8"?>
<!-- Generator: Adobe Illustrator 16.0.0, SVG Export Plug-In . SVG Version: 6.00 Build 0)  -->
<!DOCTYPE svg PUBLIC "-//W3C//DTD SVG 1.1//EN" "http://www.w3.org/Graphics/SVG/1.1/DTD/svg11.dtd">
<svg version="1.1" id="Layer_1" xmlns="http://www.w3.org/2000/svg" xmlns:xlink="http://www.w3.org/1999/xlink" x="0px" y="0px"
	 width="100px" height="100px" viewBox="0 0 100 100" enable-background="new 0 0 100 100" xml:space="preserve">
<g>
	<radialGradient id="SVGID_1_" cx="46.9082" cy="32.7021" r="73.8107" gradientUnits="userSpaceOnUse">
		<stop  offset="0.1212" style="stop-color:#D6DE23"/>
		<stop  offset="0.4545" style="stop-color:#8BC53F"/>
		<stop  offset="0.7455" style="stop-color:#009345"/>
		<stop  offset="1" style="stop-color:#00411D"/>
	</radialGradient>
	<path fill="url(#SVGID_1_)" d="M94.875,50.031c-4.213,4.466-9.967,7.408-16.096,7.975c0.444-2.383,0.605-4.995,1.992-7.049
		c-0.697-0.153-1.395-0.322-2.084-0.482c0.667-3.027,1.364-6.045,1.594-9.147c1.387-0.33,2.803-0.475,4.229-0.551
		c-0.291-0.866-0.429-1.893-1.233-2.452c-2.19-1.908-4.474-3.7-6.657-5.623c0.56-0.1,1.686-0.307,2.237-0.399
		c-0.873-1.992-2.911-2.987-4.413-4.42c-1.601-1.302-2.903-3.094-4.864-3.876c-2.276,0.767-3.884,2.666-5.861,3.931
		c-1.762,1.386-3.83,2.612-4.825,4.696c0.911,0.107,1.822,0.222,2.742,0.314c-2.283,2.888-6.91,4.015-7.063,8.251
		c1.724,0.276,3.439,0.621,5.179,0.766c0.368,2.796,0.628,5.6,0.735,8.42c-1.363,0.329-3.286,0.084-3.885,1.668
		c0.882,0.836,2.123,0.974,3.211,1.418c0.367,0.866,0.397,1.823,0.574,2.742c-4.604-1.049-8.933-2.994-13.307-4.748
		c-4.352-1.779-8.994-2.851-13.694-3.134c0.303-0.368,0.563-0.766,0.782-1.188c0.75-4.535,2.11-8.962,3.819-13.237
		c2.076-3.303,3.195-7.11,5.469-10.297c1.126,0.062,2.26,0.123,3.395,0.177c0.72,0.743,1.647,1.425,1.195,2.62
		c0.276-0.054,0.796-0.161,1.065-0.215c-0.208,0.191-0.606,0.598-0.805,0.797c0.651,0.475,1.233,1.034,1.111,1.916
		c0.835,2.796,2.437,6.665-0.405,8.848c2.222-1.433,4.643-3.218,5.155-5.983c0.321-0.996-0.131-2.413,1.096-2.911l0.168,0.781
		c0.553,0.965,0.659,2.146,1.311,3.072c-0.115,0.613-0.222,1.233-0.321,1.854c2.26-2.114,2.888-5.699,1.907-8.587
		c-1.088-3.057-3.876-5.042-6.696-6.358l0.767-1.456c0.276,0.498,0.827,1.478,1.118,1.969c0.184-0.697,0.354-1.387,0.521-2.084
		c0.292,0.505,0.882,1.509,1.181,2.022c0-0.498,0.008-1.486,0.008-1.984c0.359,0.689,0.713,1.378,1.064,2.076
		c0.138-0.758,0.276-1.509,0.413-2.26c0.185,0.75,0.384,1.502,0.583,2.26c0.674,0.039,1.355,0.092,2.037,0.176
		c-0.03-0.321-0.091-0.988-0.122-1.31c0.567,0.736,1.096,1.51,1.594,2.299c0.046-0.598,0.138-1.793,0.184-2.391
		c0.092,0.007,0.276,0.016,0.376,0.016c0.022,0.375,0.068,1.11,0.092,1.478c0.306-0.046,0.903-0.146,1.203-0.191l-0.077,0.736
		c0.337-0.069,1.012-0.208,1.349-0.284c-0.016,0.337-0.077,1.003-0.101,1.333c0.683,0.023,2.054,0.068,2.735,0.091
		c-0.935-3.371-3.892-5.929-7.332-6.481c0.314-0.628,0.637-1.249,0.988-1.846c0.23,0.33,0.69,0.98,0.92,1.302
		c0.207-0.437,0.605-1.31,0.812-1.754c0.966,1.027,2.338,1.448,3.532,2.145c-1.67-2.803-4.597-4.91-7.898-5.14
		c-4.222-0.238-8.764,1.854-10.718,5.723c0.176-5.011-3.685-9.952-8.695-10.672c-2.313-0.383-4.566,0.275-6.768,0.866
		c0.969,0.314,1.9,0.735,2.827,1.164c0.425,0.039,1.268,0.108,1.689,0.138c0.091,0.353,0.291,1.065,0.382,1.417
		c-4.439-0.636-9.319,0.912-11.702,4.918c0.487-0.36,1.456-1.088,1.938-1.456c-0.011,0.261-0.042,0.767-0.053,1.019
		c1.191-1.049,2.888-0.467,4.324-0.559c0.782,1.157,1.992,0.805,2.712-0.215c-0.176,0.881,0.1,1.762,0.533,2.521l0.045-2.068
		c0.349,0.483,1.054,1.425,1.402,1.907c0.31-0.444,0.938-1.333,1.245-1.777c-0.122,0.621-0.39,1.87-0.521,2.498l1.923-1.271
		c-0.429,0.728-0.889,1.448-1.386,2.13c-4.076,0.038-8.466,2.198-9.775,6.274c-0.118,0.605-0.356,1.808-0.471,2.413
		c1.302-0.046,2.096-0.712,2.367-1.992c0.79,0.123,1.74-0.061,2.721-0.061c0.555-0.782,1.072-1.586,1.608-2.375
		c-0.264,0.95-0.505,1.9-0.731,2.865c0.717-0.958,1.382-1.946,1.954-2.995c-0.027,0.628-0.069,1.877-0.088,2.505
		c0.26-0.605,0.789-1.823,1.053-2.428c0.165,0.421,0.499,1.271,0.659,1.685c0.414-1.05,0.812-2.099,1.203-3.156
		c0.039,0.919,0.092,1.845,0.161,2.773c0.437-0.889,0.866-1.77,1.288-2.667c0.214,0.345,0.628,1.034,0.834,1.379
		c0.897,0.475,1.786,0.966,2.673,1.463c-5.577,7.714-9.844,16.509-11.633,25.894c-0.931,0.123-1.861,0.246-2.792,0.383
		c-0.433-4.489-2.026-8.718-3.8-12.816c1.72,0.053,3.298,0.735,4.831,1.456c0.092,0.306,0.287,0.919,0.383,1.218
		c0.252-0.091,0.77-0.291,1.023-0.382c0.7,0.666,1.409,1.325,2.126,1.977c-0.157-1.333,0-2.812-0.72-4.015
		c-0.851-1.563-2.685-2.068-4.129-2.873c1.846-1.64,4.559-0.873,6.692-0.275c-1.26-2.245-3.605-3.463-6.136-3.608
		c1.106-0.345,2.252-0.598,3.385-0.897c-0.601-0.222-1.206-0.421-1.804-0.62c-1.345-0.085-2.7-0.069-4.033,0.114
		c-1.946,0.299-3.042,2.245-3.635,3.938c-1.341-1.808-3.294-3.394-5.662-3.324c-1.762-0.1-3.229,0.996-4.477,2.106
		c0.697-0.007,2.083-0.022,2.773-0.03c-1.908,1.211-3.256,2.919-4.08,4.995c0.314-0.168,0.64-0.33,0.961-0.49
		c0.843-0.56,1.697-1.112,2.448-1.793L13.7,34.401c0.843-0.298,1.705-0.566,2.574-0.796c0.624,0.276,1.279,0.468,1.965,0.583
		c-2.969,0.811-4.781,4.351-3.006,7.071c0.448-1.027,0.865-2.068,1.428-3.035c-0.252,2.038,0.249,4.383,1.893,5.708
		c0.073-0.75,0.108-1.502,0.115-2.252c0.773-1.646,1.344-3.456,2.524-4.888c0.759-0.268,2.042-0.337,2.218,0.705
		c1.333,3.647,2.429,7.401,2.605,11.308c-6.47,1.233-12.488,4.459-17.26,8.979c-1.583,1.539-3.092,3.155-4.646,4.726
		c1.027,4.741,3.202,9.186,5.838,13.238c0.456,0.574,0.8,1.349,1.528,1.64c4.335-2.068,8.519-4.644,13.26-5.7
		c10.775-3.348,22.267-3.501,33.414-2.475c10.587,0.743,21.06,2.843,31.67,3.249C93.365,65.565,95.388,57.813,94.875,50.031z
		 M77.002,51.669c-4.688,0.767-9.545,0.674-14.257,0.101c0.421-0.107,1.264-0.322,1.686-0.438c-0.498-0.611-1.172-1.034-1.823-1.439
		c-0.092-2.643-0.375-5.263-0.804-7.868c2.497,0.015,5.01,0.053,7.461,0.566c0.773,0.245,1.556,0.03,2.184-0.452
		c2.306-0.176,4.627-0.146,6.941-0.222c-0.552,2.72-1.149,5.432-1.54,8.182c-1.28,0.039-2.605,0.146-3.616,1.005
		C74.443,51.51,75.73,51.594,77.002,51.669z"/>
	<g>
		<radialGradient id="SVGID_2_" cx="47.5146" cy="102.0303" r="43.3312" gradientUnits="userSpaceOnUse">
			<stop  offset="0" style="stop-color:#44C7F4"/>
			<stop  offset="0.1775" style="stop-color:#22BAF1"/>
			<stop  offset="0.3758" style="stop-color:#00ADEE"/>
			<stop  offset="0.4645" style="stop-color:#00A6E6"/>
			<stop  offset="0.6041" style="stop-color:#0092CF"/>
			<stop  offset="0.7772" style="stop-color:#0072AA"/>
			<stop  offset="0.9754" style="stop-color:#004678"/>
			<stop  offset="1" style="stop-color:#004071"/>
		</radialGradient>
		<path fill="url(#SVGID_2_)" d="M27.551,77.011c-4.781,0.752-9.469,1.763-14.093,3.203c0.916,0.942,1.793,1.953,2.862,2.743
			c1.038,0.077,2.026-0.392,3.026-0.629c8.224-2.437,16.945-2.114,25.388-1.278c12.235,1.287,24.553,3.5,36.872,1.93
			c1.41-1.472,2.973-2.85,3.915-4.695C66.277,77.135,49.492,73.595,27.551,77.011z"/>
		<radialGradient id="SVGID_3_" cx="47.5151" cy="102.0332" r="43.3322" gradientUnits="userSpaceOnUse">
			<stop  offset="0" style="stop-color:#44C7F4"/>
			<stop  offset="0.1775" style="stop-color:#22BAF1"/>
			<stop  offset="0.3758" style="stop-color:#00ADEE"/>
			<stop  offset="0.4645" style="stop-color:#00A6E6"/>
			<stop  offset="0.6041" style="stop-color:#0092CF"/>
			<stop  offset="0.7772" style="stop-color:#0072AA"/>
			<stop  offset="0.9754" style="stop-color:#004678"/>
			<stop  offset="1" style="stop-color:#004071"/>
		</radialGradient>
		<path fill="url(#SVGID_3_)" d="M62.646,87.27c-3.54-0.444-7.103-0.574-10.635-0.995c-10.617-1.097-21.511-2.528-32.03,0.03
			c5.742,4.436,14.533,10.174,26.025,10.174c10.495,0,24.622-4.107,30.881-9.668C72.16,87.339,67.396,87.378,62.646,87.27z"/>
	</g>
</g>
</svg>
